<svg xmlns="http://www.w3.org/2000/svg" xmlns:xlink="http://www.w3.org/1999/xlink" width="500" zoomAndPan="magnify" viewBox="0 0 375 374.999991" height="500" preserveAspectRatio="xMidYMid meet" version="1.0"><defs><g/><clipPath id="3ac489150f"><path d="M 120.078125 120.078125 L 255.078125 120.078125 L 255.078125 255.078125 L 120.078125 255.078125 Z M 120.078125 120.078125 " clip-rule="nonzero"/></clipPath></defs><g clip-path="url(#3ac489150f)"><path fill="#2346af" d="M 187.578125 120.078125 C 150.300781 120.078125 120.078125 150.300781 120.078125 187.578125 C 120.078125 224.859375 150.300781 255.078125 187.578125 255.078125 C 224.859375 255.078125 255.078125 224.859375 255.078125 187.578125 C 255.078125 150.300781 224.859375 120.078125 187.578125 120.078125 " fill-opacity="1" fill-rule="nonzero"/></g><g fill="#ffffff" fill-opacity="1"><g transform="translate(163.346947, 205.122013)"><g><path d="M 44.710938 -14.113281 C 44.710938 -20.015625 41.039062 -25.054688 35.785156 -27 C 40.03125 -28.945312 43.054688 -33.265625 43.054688 -38.160156 C 43.054688 -44.855469 37.511719 -50.398438 30.816406 -50.398438 L 5.617188 -50.398438 C 4.894531 -50.398438 4.535156 -49.894531 4.535156 -49.390625 C 4.535156 -48.886719 4.894531 -48.382812 5.617188 -48.382812 L 8.929688 -48.382812 L 8.929688 -2.015625 L 5.039062 -2.015625 C 4.320312 -2.015625 3.960938 -1.441406 3.960938 -1.007812 C 3.960938 -0.503906 4.320312 0 5.039062 0 L 30.960938 0 C 38.59375 -0.0703125 44.710938 -6.335938 44.710938 -14.113281 Z M 11.089844 -2.015625 L 11.089844 -48.382812 L 18 -48.382812 L 18 -2.015625 Z M 32.257812 -48.238281 L 32.257812 -28.007812 C 31.753906 -28.007812 31.320312 -27.9375 30.816406 -27.9375 L 20.160156 -27.9375 L 20.160156 -48.382812 L 30.816406 -48.382812 C 31.320312 -48.382812 31.753906 -48.3125 32.257812 -48.238281 Z M 40.894531 -38.160156 C 40.894531 -33.839844 38.160156 -30.097656 34.414062 -28.65625 L 34.414062 -47.664062 C 38.160156 -46.152344 40.894531 -42.40625 40.894531 -38.160156 Z M 30.816406 -2.015625 L 20.160156 -2.015625 L 20.160156 -25.921875 L 30.816406 -25.921875 C 31.320312 -25.921875 31.753906 -25.921875 32.257812 -25.847656 L 32.257812 -2.089844 C 31.753906 -2.015625 31.320312 -2.015625 30.816406 -2.015625 Z M 34.414062 -2.59375 L 34.414062 -25.34375 C 39.167969 -23.832031 42.550781 -19.367188 42.550781 -14.113281 C 42.550781 -8.710938 39.167969 -4.175781 34.414062 -2.59375 Z M 34.414062 -2.59375 "/></g></g></g><g fill="#ffffff" fill-opacity="1"><g transform="translate(165.146917, 222.071997)"><g><path d="M 7.449219 -2.351562 C 7.449219 -3.332031 6.835938 -4.171875 5.960938 -4.496094 C 6.667969 -4.820312 7.171875 -5.539062 7.171875 -6.355469 C 7.171875 -7.472656 6.25 -8.394531 5.132812 -8.394531 L 0.933594 -8.394531 C 0.816406 -8.394531 0.753906 -8.3125 0.753906 -8.226562 C 0.753906 -8.144531 0.816406 -8.058594 0.933594 -8.058594 L 1.488281 -8.058594 L 1.488281 -0.335938 L 0.839844 -0.335938 C 0.71875 -0.335938 0.660156 -0.238281 0.660156 -0.167969 C 0.660156 -0.0820312 0.71875 0 0.839844 0 L 5.15625 0 C 6.429688 -0.0117188 7.449219 -1.054688 7.449219 -2.351562 Z M 1.847656 -0.335938 L 1.847656 -8.058594 L 3 -8.058594 L 3 -0.335938 Z M 5.371094 -8.035156 L 5.371094 -4.664062 C 5.289062 -4.664062 5.214844 -4.652344 5.132812 -4.652344 L 3.359375 -4.652344 L 3.359375 -8.058594 L 5.132812 -8.058594 C 5.214844 -8.058594 5.289062 -8.046875 5.371094 -8.035156 Z M 6.8125 -6.355469 C 6.8125 -5.636719 6.355469 -5.011719 5.730469 -4.773438 L 5.730469 -7.9375 C 6.355469 -7.6875 6.8125 -7.0625 6.8125 -6.355469 Z M 5.132812 -0.335938 L 3.359375 -0.335938 L 3.359375 -4.316406 L 5.132812 -4.316406 C 5.214844 -4.316406 5.289062 -4.316406 5.371094 -4.304688 L 5.371094 -0.347656 C 5.289062 -0.335938 5.214844 -0.335938 5.132812 -0.335938 Z M 5.730469 -0.433594 L 5.730469 -4.222656 C 6.523438 -3.96875 7.085938 -3.226562 7.085938 -2.351562 C 7.085938 -1.449219 6.523438 -0.695312 5.730469 -0.433594 Z M 5.730469 -0.433594 "/></g></g></g><g fill="#ffffff" fill-opacity="1"><g transform="translate(177.990984, 222.071997)"><g><path d="M 8.238281 -8.394531 L 5.203125 -8.394531 C 5.109375 -8.394531 5.011719 -8.335938 5.011719 -8.238281 C 5.011719 -8.144531 5.109375 -8.058594 5.203125 -8.058594 L 5.757812 -8.058594 L 5.757812 -0.515625 C 5.347656 -0.300781 4.882812 -0.179688 4.390625 -0.179688 C 3.898438 -0.179688 3.429688 -0.300781 3.023438 -0.515625 L 3.023438 -8.058594 L 3.574219 -8.058594 C 3.667969 -8.058594 3.742188 -8.132812 3.742188 -8.226562 C 3.742188 -8.324219 3.667969 -8.394531 3.574219 -8.394531 L 0.46875 -8.394531 C 0.371094 -8.394531 0.300781 -8.324219 0.300781 -8.226562 C 0.300781 -8.132812 0.371094 -8.058594 0.46875 -8.058594 L 1.03125 -8.058594 L 1.03125 -3.167969 C 1.03125 -1.320312 2.542969 0.179688 4.390625 0.179688 C 6.234375 0.179688 7.746094 -1.320312 7.746094 -3.167969 L 7.746094 -8.058594 L 8.238281 -8.058594 C 8.324219 -8.058594 8.40625 -8.144531 8.40625 -8.238281 C 8.40625 -8.335938 8.324219 -8.394531 8.238281 -8.394531 Z M 1.390625 -3.167969 L 1.390625 -8.058594 L 2.664062 -8.058594 L 2.664062 -0.730469 C 1.894531 -1.269531 1.390625 -2.160156 1.390625 -3.167969 Z M 7.386719 -8.058594 L 7.386719 -3.167969 C 7.386719 -2.160156 6.882812 -1.269531 6.117188 -0.730469 L 6.117188 -8.058594 Z M 7.386719 -8.058594 "/></g></g></g><g fill="#ffffff" fill-opacity="1"><g transform="translate(191.494402, 222.071997)"><g><path d="M 6.320312 -1.929688 C 6.222656 -1.929688 6.140625 -1.847656 6.140625 -1.75 L 6.140625 -0.335938 L 2.484375 -0.335938 L 6.441406 -8.132812 C 6.5 -8.25 6.414062 -8.394531 6.296875 -8.394531 L 0.648438 -8.394531 C 0.550781 -8.394531 0.480469 -8.324219 0.480469 -8.226562 L 0.480469 -6.871094 C 0.480469 -6.777344 0.5625 -6.691406 0.660156 -6.691406 C 0.753906 -6.691406 0.839844 -6.777344 0.839844 -6.871094 L 0.839844 -8.058594 L 4.234375 -8.058594 L 0.300781 -0.324219 C 0.277344 -0.289062 0.277344 -0.25 0.277344 -0.214844 C 0.277344 -0.0976562 0.371094 0 0.503906 0 L 6.332031 0 C 6.414062 0 6.5 -0.0703125 6.5 -0.167969 L 6.5 -1.75 C 6.5 -1.847656 6.414062 -1.929688 6.320312 -1.929688 Z M 0.707031 -0.335938 L 4.640625 -8.058594 L 6.007812 -8.058594 L 2.074219 -0.335938 Z M 0.707031 -0.335938 "/></g></g></g><g fill="#ffffff" fill-opacity="1"><g transform="translate(203.067717, 222.071997)"><g><path d="M 6.320312 -1.929688 C 6.222656 -1.929688 6.140625 -1.847656 6.140625 -1.75 L 6.140625 -0.335938 L 2.484375 -0.335938 L 6.441406 -8.132812 C 6.5 -8.25 6.414062 -8.394531 6.296875 -8.394531 L 0.648438 -8.394531 C 0.550781 -8.394531 0.480469 -8.324219 0.480469 -8.226562 L 0.480469 -6.871094 C 0.480469 -6.777344 0.5625 -6.691406 0.660156 -6.691406 C 0.753906 -6.691406 0.839844 -6.777344 0.839844 -6.871094 L 0.839844 -8.058594 L 4.234375 -8.058594 L 0.300781 -0.324219 C 0.277344 -0.289062 0.277344 -0.25 0.277344 -0.214844 C 0.277344 -0.0976562 0.371094 0 0.503906 0 L 6.332031 0 C 6.414062 0 6.5 -0.0703125 6.5 -0.167969 L 6.5 -1.75 C 6.5 -1.847656 6.414062 -1.929688 6.320312 -1.929688 Z M 0.707031 -0.335938 L 4.640625 -8.058594 L 6.007812 -8.058594 L 2.074219 -0.335938 Z M 0.707031 -0.335938 "/></g></g></g></svg>